<?xml version="1.0" encoding="utf-8"?>
<svg version="1.1" xmlns:xlink="http://www.w3.org/1999/xlink" width="23px" height="23px" xmlns="http://www.w3.org/2000/svg">
  <g transform="matrix(1 0 0 1 -45 -88 )">
    <path d="M 6.224888392857143 12.693638392857142  L 2.772321428571429 15.00390625  L 10.51171875 20.16350446428571  L 10.51171875 15.555803571428571  L 6.224888392857143 12.693638392857142  Z M 1.9765625 9.844308035714286  L 1.9765625 13.155691964285715  L 4.453683035714286 11.5  L 1.9765625 9.844308035714286  Z M 12.48828125 15.555803571428571  L 12.48828125 20.16350446428571  L 20.22767857142857 15.00390625  L 16.775111607142858 12.693638392857142  L 12.48828125 15.555803571428571  Z M 8.008928571428571 11.5  L 11.5 13.8359375  L 14.991071428571429 11.5  L 11.5 9.1640625  L 8.008928571428571 11.5  Z M 2.772321428571429 7.99609375  L 6.224888392857143 10.306361607142858  L 10.51171875 7.444196428571429  L 10.51171875 2.836495535714287  L 2.772321428571429 7.99609375  Z M 21.0234375 9.844308035714286  L 18.54631696428571 11.5  L 21.0234375 13.155691964285715  L 21.0234375 9.844308035714286  Z M 12.48828125 7.444196428571429  L 16.775111607142858 10.306361607142858  L 20.22767857142857 7.99609375  L 12.48828125 2.836495535714287  L 12.48828125 7.444196428571429  Z M 22.56361607142857 7.174665178571429  C 22.85453869047619 7.371465773809523  23 7.645275297619046  23 7.99609375  L 23 15.00390625  C 23 15.354724702380953  22.85453869047619 15.628534226190474  22.56361607142857 15.825334821428571  L 12.051897321428571 22.83314732142857  C 11.872209821428573 22.94438244047619  11.688244047619047 23  11.5 23  C 11.311755952380953 23  11.127790178571429 22.94438244047619  10.948102678571429 22.83314732142857  L 0.43638392857142855 15.825334821428571  C 0.1454613095238095 15.628534226190474  0 15.354724702380953  0 15.00390625  L 0 7.99609375  C 0 7.645275297619046  0.1454613095238095 7.371465773809523  0.43638392857142855 7.174665178571429  L 10.948102678571429 0.16685267857142894  C 11.127790178571429 0.0556175595238122  11.311755952380953 0  11.5 0  C 11.688244047619047 0  11.872209821428573 0.0556175595238122  12.051897321428571 0.16685267857142894  L 22.56361607142857 7.174665178571429  Z " fill-rule="nonzero" fill="#ffffff" stroke="none" transform="matrix(1 0 0 1 45 88 )" />
  </g>
</svg>