<?xml version="1.0" encoding="utf-8"?>
<!-- Generator: Adobe Illustrator 17.0.0, SVG Export Plug-In . SVG Version: 6.00 Build 0)  -->
<!DOCTYPE svg PUBLIC "-//W3C//DTD SVG 1.1//EN" "http://www.w3.org/Graphics/SVG/1.1/DTD/svg11.dtd">
<svg version="1.1" id="图层_1" xmlns="http://www.w3.org/2000/svg" xmlns:xlink="http://www.w3.org/1999/xlink" x="0px" y="0px"
	 width="236px" height="236px" viewBox="0 0 236 236" style="enable-background:new 0 0 236 236;" xml:space="preserve">
<g>
	<g>
		
			<linearGradient id="SVGID_1_" gradientUnits="userSpaceOnUse" x1="78.3762" y1="177.2509" x2="523.4522" y2="-208.1849" gradientTransform="matrix(0.866 -0.5 1 0.5774 -127.1247 121.273)">
			<stop  offset="0" style="stop-color:#55D1FF"/>
			<stop  offset="0.1138" style="stop-color:#4BB8DF;stop-opacity:0.8862"/>
			<stop  offset="0.5563" style="stop-color:#235868;stop-opacity:0.4437"/>
			<stop  offset="0.8604" style="stop-color:#0B1C1D;stop-opacity:0.1396"/>
			<stop  offset="1" style="stop-color:#010400;stop-opacity:0"/>
		</linearGradient>
		<path style="fill:url(#SVGID_1_);" d="M117.4,0l0.1,5c-28.6,0.7-57,11.7-78.8,33l-3.5-3.5C-5.1,74-11.6,136.4,19.8,182.9l4.2-2.7
			c4.2,6.3,9.2,12.2,14.8,17.7c22.8,22.3,52.9,33.3,82.9,33l0.1,5c31.7-0.3,61.6-12.6,84-34.6l-3.5-3.5
			c45.1-44.1,45.1-115.8,0-159.9l3.5-3.5C182.2,11.5,150.8-0.8,117.4,0z M199.8,195.7l-3.5-3.5c-20,19.5-46.5,30.5-74.7,30.7l0,4.8
			c-29.1,0.3-58.3-10.4-80.5-32.1c-5.5-5.4-10.3-11.1-14.4-17.2l4.2-2.7C3.1,134.4,8.8,78.9,44.7,43.8l-3.5-3.5
			C62.3,19.6,89.9,9,117.6,8.3l0.1,4.8c29.7-0.7,57.6,10.2,78.5,30.7l3.5-3.5C243.6,83.2,243.6,152.8,199.8,195.7z"/>
		
			<linearGradient id="SVGID_2_" gradientUnits="userSpaceOnUse" x1="39.6129" y1="241.1555" x2="294.0885" y2="20.7797" gradientTransform="matrix(0.866 -0.5 1 0.5774 -127.1247 121.273)">
			<stop  offset="0" style="stop-color:#55D1FF"/>
			<stop  offset="0.1138" style="stop-color:#4BB8DF;stop-opacity:0.8862"/>
			<stop  offset="0.5563" style="stop-color:#235868;stop-opacity:0.4437"/>
			<stop  offset="0.8604" style="stop-color:#0B1C1D;stop-opacity:0.1396"/>
			<stop  offset="1" style="stop-color:#010400;stop-opacity:0"/>
		</linearGradient>
		<path style="fill:url(#SVGID_2_);" d="M121.5,193.7c20.3-0.3,39.3-8.1,53.7-22.2l-3.1-3.1c-13.5,13.2-31.5,20.6-50.6,20.9
			L121.5,193.7z"/>
		
			<linearGradient id="SVGID_3_" gradientUnits="userSpaceOnUse" x1="222.7656" y1="81.7815" x2="690.7629" y2="-323.5042" gradientTransform="matrix(0.866 -0.5 1 0.5774 -127.1247 121.273)">
			<stop  offset="0" style="stop-color:#55D1FF"/>
			<stop  offset="0.1138" style="stop-color:#4BB8DF;stop-opacity:0.8862"/>
			<stop  offset="0.5563" style="stop-color:#235868;stop-opacity:0.4437"/>
			<stop  offset="0.8604" style="stop-color:#0B1C1D;stop-opacity:0.1396"/>
			<stop  offset="1" style="stop-color:#010400;stop-opacity:0"/>
		</linearGradient>
		<path style="fill:url(#SVGID_3_);" d="M175.2,64.5c-14.8-14.4-34.4-22.3-55.2-22.2l0,4.4c19.7-0.1,38.2,7.3,52.1,20.9L175.2,64.5z
			"/>
		
			<linearGradient id="SVGID_4_" gradientUnits="userSpaceOnUse" x1="-3.2451" y1="183.7463" x2="512.6648" y2="-263.0317" gradientTransform="matrix(0.866 -0.5 1 0.5774 -127.1247 121.273)">
			<stop  offset="0" style="stop-color:#55D1FF"/>
			<stop  offset="0.1138" style="stop-color:#4BB8DF;stop-opacity:0.8862"/>
			<stop  offset="0.5563" style="stop-color:#235868;stop-opacity:0.4437"/>
			<stop  offset="0.8604" style="stop-color:#0B1C1D;stop-opacity:0.1396"/>
			<stop  offset="1" style="stop-color:#010400;stop-opacity:0"/>
		</linearGradient>
		<path style="fill:url(#SVGID_4_);" d="M53.9,102.4l-6.5-1.5l2.2,0.5c3.1-12.8,9.8-24.5,19.4-33.9l-3.1-3.1
			c-10.1,9.9-17.2,22.3-20.5,35.9l-4.3-1c-3.4,14-2.9,28.6,1.4,42.3l6.4-1.9l-2.1,0.6c2.2,6.8,5.3,13.3,9.3,19.3l3.7-2.4
			c-3.8-5.6-6.7-11.7-8.8-18.2l4.3-1.3C51.5,126.3,51.1,114.1,53.9,102.4z"/>
		
			<linearGradient id="SVGID_5_" gradientUnits="userSpaceOnUse" x1="75.2049" y1="184.8086" x2="513.198" y2="-194.4935" gradientTransform="matrix(0.866 -0.5 1 0.5774 -127.1247 121.273)">
			<stop  offset="0" style="stop-color:#55D1FF"/>
			<stop  offset="0.1138" style="stop-color:#4BB8DF;stop-opacity:0.8862"/>
			<stop  offset="0.5563" style="stop-color:#235868;stop-opacity:0.4437"/>
			<stop  offset="0.8604" style="stop-color:#0B1C1D;stop-opacity:0.1396"/>
			<stop  offset="1" style="stop-color:#010400;stop-opacity:0"/>
		</linearGradient>
		<path style="fill:url(#SVGID_5_);" d="M185.7,54.2c-22.5-22-53.7-30.2-82.8-24.7l-0.9-4.6c-19,3.6-36.3,12.6-50,26.1l3.3,3.3
			c-36,35.2-36,92.5,0,127.6l-3.3,3.3c15.1,14.7,34.1,24,55.2,26.9l0.7-4.7c27.7,3.7,56.7-4.7,77.9-25.4c4.5-4.4,8.4-9.2,11.8-14.2
			l3.9,2.5c21.6-32.1,21.1-74.8-1.4-106.4l-3.9,2.7C193.1,62.2,189.6,58,185.7,54.2z M183.3,179.5c-20.4,20-48.5,28.1-75.1,24.5
			l0.7-5c-18.1-2.5-34.6-10.5-47.5-23.2l-3.8,3.7c-34.7-33.9-34.7-89.1,0-123l3.8,3.7c11.8-11.6,26.8-19.4,43.1-22.5l-1-5.1
			c28-5.3,58.2,2.7,79.8,23.9c3.8,3.7,7.1,7.7,10.1,11.9l-4.3,2.9c19.4,27.2,19.8,64,1.2,91.7l4.4,2.9
			C191.5,170.7,187.7,175.3,183.3,179.5z"/>
		
			<linearGradient id="SVGID_6_" gradientUnits="userSpaceOnUse" x1="78.1165" y1="179.9702" x2="514.9004" y2="-198.2846" gradientTransform="matrix(0.866 -0.5 1 0.5774 -127.1247 121.273)">
			<stop  offset="0" style="stop-color:#55D1FF"/>
			<stop  offset="0.1138" style="stop-color:#4BB8DF;stop-opacity:0.8862"/>
			<stop  offset="0.5563" style="stop-color:#235868;stop-opacity:0.4437"/>
			<stop  offset="0.8604" style="stop-color:#0B1C1D;stop-opacity:0.1396"/>
			<stop  offset="1" style="stop-color:#010400;stop-opacity:0"/>
		</linearGradient>
		<path style="fill:url(#SVGID_6_);" d="M160.9,78.4c-22.3-21.9-58.5-21.9-80.9,0c-22.3,21.9-22.3,57.3,0,79.2s58.5,21.9,80.9,0
			C183.3,135.7,183.3,100.3,160.9,78.4z"/>
	</g>
</g>
</svg>
